HIERARCHY
ROOT joint_0
{
	OFFSET 0.000000 0.000000 0.000000
	CHANNELS 6 Xposition Yposition Zposition Zrotation Yrotation Xrotation 
	JOINT joint_1
	{
		OFFSET 6.590088 -1.122192 114.019043
		CHANNELS 3 Zrotation Yrotation Xrotation
		JOINT joint_2
		{
			OFFSET -5.956055 -0.820435 104.151001
			CHANNELS 3 Zrotation Yrotation Xrotation
			JOINT joint_3
			{
				OFFSET -7.343506 -1.103027 103.942993
				CHANNELS 3 Zrotation Yrotation Xrotation
				JOINT joint_4
				{
					OFFSET 3.109131 -2.857056 147.715942
					CHANNELS 3 Zrotation Yrotation Xrotation
					JOINT joint_5
					{
						OFFSET 28.592285 -2.852295 87.703979
						CHANNELS 3 Zrotation Yrotation Xrotation
						End Site
						{
							OFFSET 0.000000 0.000000 0.000000
						}
					}
				}
				JOINT joint_6
				{
					OFFSET -0.332520 -33.687378 82.401978
					CHANNELS 3 Zrotation Yrotation Xrotation
					JOINT joint_7
					{
						OFFSET -7.397461 -168.719177 -22.750977
						CHANNELS 3 Zrotation Yrotation Xrotation
						JOINT joint_8
						{
							OFFSET 17.065918 -24.903137 -272.721069
							CHANNELS 3 Zrotation Yrotation Xrotation
							JOINT joint_9
							{
								OFFSET 33.311279 -37.031616 -278.192993
								CHANNELS 3 Zrotation Yrotation Xrotation
								End Site
								{
									OFFSET 0.000000 0.000000 0.000000
								}
							}
						}
					}
				}
				JOINT joint_10
				{
					OFFSET 3.914307 30.461670 83.552979
					CHANNELS 3 Zrotation Yrotation Xrotation
					JOINT joint_11
					{
						OFFSET 15.543701 166.845459 -30.963013
						CHANNELS 3 Zrotation Yrotation Xrotation
						JOINT joint_12
						{
							OFFSET 35.734863 35.017700 -269.786011
							CHANNELS 3 Zrotation Yrotation Xrotation
							JOINT joint_13
							{
								OFFSET 70.506592 13.977783 -273.320007
								CHANNELS 3 Zrotation Yrotation Xrotation
								End Site
								{
									OFFSET 0.000000 0.000000 0.000000
								}
							}
						}
					}
				}
			}
		}
	}
	JOINT joint_14
	{
		OFFSET -0.314697 -95.093994 -116.004028
		CHANNELS 3 Zrotation Yrotation Xrotation
		JOINT joint_15
		{
			OFFSET -22.490723 2.017883 -455.510986
			CHANNELS 3 Zrotation Yrotation Xrotation
			JOINT joint_16
			{
				OFFSET -46.427490 7.144104 -496.360985
				CHANNELS 3 Zrotation Yrotation Xrotation
				JOINT joint_17
				{
					OFFSET 209.055420 -37.122803 -85.191002
					CHANNELS 3 Zrotation Yrotation Xrotation
					End Site
					{
						OFFSET 0.000000 0.000000 0.000000
					}
				}
			}
		}
	}
	JOINT joint_18
	{
		OFFSET 5.652832 94.642578 -116.244019
		CHANNELS 3 Zrotation Yrotation Xrotation
		JOINT joint_19
		{
			OFFSET -12.379883 -7.332642 -455.843994
			CHANNELS 3 Zrotation Yrotation Xrotation
			JOINT joint_20
			{
				OFFSET -45.227051 -8.172241 -496.457985
				CHANNELS 3 Zrotation Yrotation Xrotation
				JOINT joint_21
				{
					OFFSET 210.522949 -11.530396 -88.809004
					CHANNELS 3 Zrotation Yrotation Xrotation
					End Site
					{
						OFFSET 0.000000 0.000000 0.000000
					}
				}
			}
		}
	}
}
MOTION
Frames: 6
Frame Time: 0.016667
-2698.304443 890.611267 1182.551025 -0.900182 -0.187090 -0.631549 0.828165 -0.534589 -0.446271 0.865009 0.049020 0.119903 0.847568 -0.072658 -0.107537 0.328215 0.204401 -0.985931 0.000000 0.000000 0.000000 -0.009888 -0.616828 2.205777 -0.071002 -0.496286 -0.387477 -0.410006 5.370543 2.719165 0.000000 0.000000 0.000000 2.222031 -0.565112 1.255471 -0.871536 -0.624645 -4.251233 1.025155 6.660295 2.895884 0.000000 0.000000 0.000000 -0.083391 -2.120450 -0.454746 0.017460 1.888208 -2.155903 -0.211468 1.673711 0.211415 0.000000 0.000000 0.000000 0.928953 -2.096391 -1.465563 0.769592 2.533586 1.659215 0.928419 0.070229 0.394968 0.000000 0.000000 0.000000 
-2697.792725 890.680420 1182.479980 -0.891204 -0.172820 -0.636260 0.815759 -0.518182 -0.447804 0.852580 0.044693 0.120871 0.835196 -0.066114 -0.107403 0.329432 0.203013 -0.989779 0.000000 0.000000 0.000000 0.008099 -0.620600 2.237176 -0.069826 -0.495651 -0.404728 -0.404369 5.349588 2.742003 0.000000 0.000000 0.000000 2.211009 -0.565760 1.221832 -0.867188 -0.628299 -4.220974 1.022636 6.646206 2.885803 0.000000 0.000000 0.000000 -0.081800 -2.135413 -0.450296 0.019874 1.941117 -2.161525 -0.210361 1.647551 0.207217 0.000000 0.000000 0.000000 0.918493 -2.092761 -1.469795 0.758558 2.555900 1.665603 0.919839 0.015146 0.388333 0.000000 0.000000 0.000000 
-2697.290039 890.753052 1182.389038 -0.879800 -0.158697 -0.645030 0.802662 -0.502948 -0.443400 0.839005 0.042084 0.119270 0.821933 -0.061761 -0.105653 0.331234 0.203450 -0.995238 0.000000 0.000000 0.000000 0.024089 -0.622425 2.265779 -0.068416 -0.493585 -0.419696 -0.398252 5.327504 2.767399 0.000000 0.000000 0.000000 2.199379 -0.568094 1.190843 -0.863573 -0.632880 -4.196549 1.020365 6.631632 2.876780 0.000000 0.000000 0.000000 -0.081240 -2.154966 -0.443247 0.021304 2.002543 -2.164188 -0.210050 1.618630 0.202205 0.000000 0.000000 0.000000 0.910828 -2.089111 -1.469245 0.750484 2.578662 1.671127 0.914148 -0.043836 0.382701 0.000000 0.000000 0.000000 
-2696.796387 890.826111 1182.264038 -0.864377 -0.143257 -0.660725 0.788846 -0.489508 -0.430598 0.824241 0.040436 0.117244 0.807449 -0.059751 -0.104302 0.333637 0.206707 -1.002268 0.000000 0.000000 0.000000 0.036715 -0.620436 2.290252 -0.066583 -0.488560 -0.430525 -0.391110 5.301552 2.796832 0.000000 0.000000 0.000000 2.186730 -0.571692 1.165711 -0.861024 -0.637245 -4.182295 1.018588 6.616754 2.869782 0.000000 0.000000 0.000000 -0.082607 -2.183884 -0.431635 0.020875 2.078507 -2.161290 -0.211228 1.586145 0.195955 0.000000 0.000000 0.000000 0.908251 -2.086897 -1.459790 0.747811 2.601837 1.674213 0.913603 -0.107840 0.378961 0.000000 0.000000 0.000000 
-2696.312256 890.903687 1182.118042 -0.846703 -0.128152 -0.680434 0.774492 -0.476060 -0.411387 0.808413 0.038826 0.112300 0.792211 -0.059125 -0.101298 0.336616 0.211564 -1.010907 0.000000 0.000000 0.000000 0.047137 -0.616405 2.311479 -0.064464 -0.482083 -0.438658 -0.383401 5.273853 2.828855 0.000000 0.000000 0.000000 2.173296 -0.576952 1.143263 -0.859230 -0.642483 -4.173841 1.016848 6.600850 2.863055 0.000000 0.000000 0.000000 -0.085042 -2.217364 -0.417488 0.019427 2.163154 -2.155471 -0.213244 1.550791 0.188855 0.000000 0.000000 0.000000 0.908607 -2.084504 -1.445609 0.748243 2.625432 1.676287 0.916071 -0.175604 0.376285 0.000000 0.000000 0.000000 
-2695.830322 890.990112 1181.979980 -0.831298 -0.115525 -0.697531 0.760653 -0.464680 -0.395035 0.793364 0.039528 0.108548 0.777551 -0.059246 -0.099450 0.339103 0.216898 -1.017991 0.000000 0.000000 0.000000 0.058856 -0.612403 2.338511 -0.063156 -0.474995 -0.449437 -0.377224 5.253431 2.856434 0.000000 0.000000 0.000000 2.163081 -0.584101 1.118641 -0.857923 -0.650671 -4.163690 1.015163 6.587819 2.856344 0.000000 0.000000 0.000000 -0.086436 -2.248063 -0.406139 0.018923 2.247342 -2.150801 -0.214450 1.514914 0.181991 0.000000 0.000000 0.000000 0.909846 -2.079107 -1.436212 0.749410 2.648425 1.680772 0.919433 -0.242409 0.374037 0.000000 0.000000 0.000000 
